<svg xmlns="http://www.w3.org/2000/svg" viewBox="0 0 512 512" style="height:512px;width:512px">
  <path fill="none" d="M0 0h512v512H0z"/>
  <path d="M322.702 21.111l-20.273 60.814 20.273 20.273-115.428 115.428c-16.39-8-34.277-14.452-51.84-18.503-14.247-3.284-28.136-4.9-40.802-4.771-16.84.173-31.505 3.44-41.975 9.973L301.663 433.33c11.447-18.345 12.853-49.592 5.2-82.776-4.05-17.564-10.502-35.45-18.5-51.84l115.427-115.43 20.274 20.274 60.818-20.273L322.703 21.11z" fill="red"/>
  <path d="M154.956 312.08l-55.71 76.742 17.355 17.355 77.308-55.143z" fill="#7f7f7f"/>
</svg>