<?xml version="1.0" encoding="UTF-8" standalone="no"?>
<svg
   xmlns:dc="http://purl.org/dc/elements/1.1/"
   xmlns:cc="http://creativecommons.org/ns#"
   xmlns:rdf="http://www.w3.org/1999/02/22-rdf-syntax-ns#"
   xmlns:svg="http://www.w3.org/2000/svg"
   xmlns="http://www.w3.org/2000/svg"
   xmlns:sodipodi="http://sodipodi.sourceforge.net/DTD/sodipodi-0.dtd"
   xmlns:inkscape="http://www.inkscape.org/namespaces/inkscape"
   viewBox="0 0 512 512"
   style="height:512px;width:512px"
   version="1.1"
   id="svg8"
   sodipodi:docname="pin_grey.svg"
   inkscape:version="0.92.3 (2405546, 2018-03-11)"
   inkscape:export-filename="C:\Github\KtaneMods\Tweaks\Assets\Material\pin_grey.png"
   inkscape:export-xdpi="96"
   inkscape:export-ydpi="96">
  <metadata
     id="metadata14">
    <rdf:RDF>
      <cc:Work
         rdf:about="">
        <dc:format>image/svg+xml</dc:format>
        <dc:type
           rdf:resource="http://purl.org/dc/dcmitype/StillImage" />
        <dc:title></dc:title>
      </cc:Work>
    </rdf:RDF>
  </metadata>
  <defs
     id="defs12" />
  <sodipodi:namedview
     pagecolor="#ffffff"
     bordercolor="#666666"
     borderopacity="1"
     objecttolerance="10"
     gridtolerance="10"
     guidetolerance="10"
     inkscape:pageopacity="0"
     inkscape:pageshadow="2"
     inkscape:window-width="1920"
     inkscape:window-height="1001"
     id="namedview10"
     showgrid="false"
     inkscape:zoom="0.4609375"
     inkscape:cx="-71.59322"
     inkscape:cy="256"
     inkscape:window-x="-9"
     inkscape:window-y="-9"
     inkscape:window-maximized="1"
     inkscape:current-layer="svg8" />
  <path
     fill="none"
     d="M0 0h512v512H0z"
     id="path2" />
  <path
     d="M322.702 21.111l-20.273 60.814 20.273 20.273-115.428 115.428c-16.39-8-34.277-14.452-51.84-18.503-14.247-3.284-28.136-4.9-40.802-4.771-16.84.173-31.505 3.44-41.975 9.973L301.663 433.33c11.447-18.345 12.853-49.592 5.2-82.776-4.05-17.564-10.502-35.45-18.5-51.84l115.427-115.43 20.274 20.274 60.818-20.273L322.703 21.11z"
     fill="red"
     id="path4"
     style="fill:#c4c4c4;fill-opacity:1" />
  <path
     d="M154.956 312.08l-55.71 76.742 17.355 17.355 77.308-55.143z"
     fill="#7f7f7f"
     id="path6"
     style="fill:#c4c4c4;fill-opacity:1" />
</svg>
